<svg width="90" height="44" viewBox="0 0 90 44" fill="none" xmlns="http://www.w3.org/2000/svg">
<path d="M0 34.8023H4.89577V21.0802H14.4425C20.807 21.0802 25.458 17.252 25.458 10.5401C25.458 3.82825 20.807 0 14.4425 0H0V34.8023ZM4.89577 16.6057V4.47458H13.7082C18.1144 4.47458 20.5623 6.56271 20.5623 10.5401C20.5623 14.5175 18.1144 16.6057 13.7082 16.6057H4.89577Z" fill="black"/>
<path d="M30.7248 34.8023H35.3758V0H30.7248V34.8023Z" fill="black"/>
<path d="M56.7761 23.3175V25.8531C56.7761 28.8362 53.1042 31.322 50.1668 31.322H49.6772C47.4251 31.322 45.7606 29.7808 45.7606 27.7424C45.7606 25.4554 47.8168 24.0633 50.6563 23.8147L56.7761 23.3175ZM61.6718 34.8023C61.427 33.0621 61.427 30.8249 61.427 29.3333V18.8927C61.427 13.8215 58 9.44633 51.4886 9.44633C45.9564 9.44633 41.8929 12.5785 41.5992 17.1525H46.2501C46.5439 14.6667 48.747 13.4237 51.3907 13.4237H51.6355C54.8177 13.4237 56.7761 15.4124 56.7761 18.8927V19.6881L50.0199 20.235C46.0543 20.5831 41.1096 22.2734 41.1096 27.9412C41.1096 32.1672 44.5366 35.2994 49.1876 35.2994C53.1042 35.2994 56.0417 33.0621 57.0208 30.8249C57.0208 31.0734 57.0208 33.5593 57.2656 34.8023H61.6718Z" fill="black"/>
<path d="M74.8231 44C78.2501 44 79.9637 42.2599 79.9637 38.7797V34.2554L90 9.94351H85.2021L77.8585 28.2893L70.2211 9.94351H65.2763L75.5575 34.3051V37.7853C75.5575 39.2768 75.0679 39.774 73.5992 39.774H66.7451V44H74.8231Z" fill="black"/>
</svg>
