<svg width="126" height="34" viewBox="0 0 126 34" fill="none" xmlns="http://www.w3.org/2000/svg">
<path d="M0 33.5211H4.81864V20.3042H14.215C20.4792 20.3042 25.0569 16.6169 25.0569 10.1521C25.0569 3.68733 20.4792 0 14.215 0H0V33.5211ZM4.81864 15.9944V4.30986H13.4922C17.829 4.30986 20.2383 6.32113 20.2383 10.1521C20.2383 13.9831 17.829 15.9944 13.4922 15.9944H4.81864Z" fill="black"/>
<path d="M43.4585 22.4592V24.9014C43.4585 27.7746 39.8445 30.169 36.9534 30.169H36.4715C34.2549 30.169 32.6166 28.6845 32.6166 26.7211C32.6166 24.5183 34.6404 23.1775 37.4352 22.938L43.4585 22.4592ZM48.2772 33.5211C48.0362 31.8451 48.0362 29.6901 48.0362 28.2535V18.1972C48.0362 13.3127 44.6632 9.09859 38.2544 9.09859C32.8093 9.09859 28.8098 12.1155 28.5207 16.5211H33.0984C33.3876 14.1268 35.5559 12.9296 38.158 12.9296H38.3989C41.5311 12.9296 43.4585 14.8451 43.4585 18.1972V18.9634L36.8088 19.4901C32.9057 19.8254 28.0389 21.4535 28.0389 26.9127C28.0389 30.9831 31.4119 34 35.9896 34C39.8445 34 42.7357 31.8451 43.6995 29.6901C43.6995 29.9296 43.6995 32.3239 43.9404 33.5211H48.2772Z" fill="black"/>
<path d="M75.2781 9.57747H70.7004V22.507C70.7004 27.2958 67.7129 30.169 64.6771 30.169H64.1953C60.9668 30.169 59.3766 28.2535 59.3766 24.4225V9.57747H54.7989V25.3803C54.7989 30.4084 57.5937 34 62.9906 34C67.1828 34 69.7849 31.6056 70.7004 28.9718V33.5211H75.2781V9.57747Z" fill="black"/>
<path d="M90.5201 34C96.1097 34 100.013 31.1268 100.013 26.8169C100.013 22.507 97.0253 20.5437 93.3631 19.8254L89.5564 19.0592C87.1471 18.5803 86.1833 17.431 86.1833 15.9944C86.1833 14.3183 87.8698 12.9296 90.5201 12.9296H91.002C93.8932 12.9296 95.4351 14.8451 95.6761 17H100.254C100.254 12.4507 97.0253 9.09859 90.7128 9.09859C85.8942 9.09859 81.6056 11.6845 81.6056 16.4732C81.6056 20.5437 84.7377 22.5549 88.6408 23.3211L92.1584 23.9915C94.5678 24.4704 95.4351 25.5239 95.4351 27.0563C95.4351 28.9718 93.4595 30.169 91.002 30.169H90.5201C87.7253 30.169 85.5087 28.7803 85.2196 26.0986H80.6419C80.8828 30.6479 84.1113 34 90.5201 34Z" fill="black"/>
<path d="M115.544 12.9296H116.025C118.724 12.9296 121.23 14.5099 121.422 18.6761H109.424C110.291 14.4141 113.086 12.9296 115.544 12.9296ZM125.952 26.4338H121.374C120.892 28.9718 118.627 30.169 116.218 30.169H115.929C112.941 30.169 109.424 27.7268 109.135 22.2676H126V19.6338C126 13.4085 122.049 9.09859 115.784 9.09859C110.098 9.09859 104.557 13.2169 104.557 21.5014C104.557 29.8817 109.954 34 115.929 34C120.94 34 125.181 31.3662 125.952 26.4338Z" fill="black"/>
</svg>
