<?xml version="1.0" standalone="no"?>
<!DOCTYPE svg PUBLIC "-//W3C//DTD SVG 20010904//EN"
 "http://www.w3.org/TR/2001/REC-SVG-20010904/DTD/svg10.dtd">
<svg version="1.0" xmlns="http://www.w3.org/2000/svg"
 width="700.000000pt" height="700.000000pt" viewBox="0 0 700.000000 700.000000"
 preserveAspectRatio="xMidYMid meet">
<metadata>
Created by potrace 1.11, written by Peter Selinger 2001-2013
</metadata>
<g transform="translate(0.000000,700.000000) scale(0.100000,-0.100000)"
fill="#000000" stroke="none">
<path d="M1747 5249 l-1747 -1749 572 -573 c315 -316 576 -571 580 -568 4 3
113 240 243 526 130 286 252 553 271 593 45 98 45 105 -9 99 -82 -10 -203 -74
-458 -243 -185 -123 -197 -135 -180 -168 16 -28 47 -44 78 -40 24 4 28 -10 17
-52 -12 -44 -78 -51 -156 -16 -34 15 -55 35 -92 90 -43 62 -48 75 -42 106 11
58 180 216 356 332 160 106 305 175 520 248 97 34 140 54 140 69 0 13 62 171
73 185 18 24 40 11 108 -59 l68 -71 241 7 241 7 78 -79 c87 -87 155 -182 187
-261 26 -64 19 -123 -25 -217 -84 -181 -354 -495 -564 -659 -84 -65 -414 -296
-423 -296 -3 0 -37 -22 -77 -48 -40 -27 -129 -84 -199 -126 -116 -70 -178
-122 -178 -147 0 -5 479 -488 1065 -1074 l1065 -1065 1750 1750 1750 1750
-391 391 -390 390 -37 -6 c-20 -3 -104 -17 -187 -30 -82 -14 -163 -27 -180
-30 -16 -3 -46 -8 -65 -11 -19 -3 -46 -8 -60 -10 -24 -4 -73 -12 -115 -20 -11
-1 -65 -10 -119 -19 -114 -18 -156 -35 -193 -79 -26 -31 -75 -127 -68 -134 3
-3 137 20 280 48 40 8 454 79 555 95 119 19 131 20 160 16 14 -2 12 -56 -3
-94 -14 -31 -19 -33 -203 -86 -422 -121 -827 -251 -894 -288 -82 -44 -208
-228 -221 -323 -3 -20 1 -26 20 -28 27 -4 184 25 396 75 83 19 161 36 175 39
14 3 39 9 56 15 17 5 40 11 50 14 10 2 76 18 146 35 70 17 135 33 145 35 10 2
73 16 140 30 114 25 123 26 147 10 29 -19 36 -59 21 -122 l-9 -42 -51 3 c-74
5 -182 -25 -381 -105 -174 -69 -276 -103 -512 -169 -217 -61 -457 -170 -539
-247 -28 -26 -76 -63 -107 -81 l-55 -34 -59 64 c-105 112 -172 193 -172 206 0
7 21 25 48 41 160 98 150 88 203 197 27 56 49 104 49 107 0 3 13 34 29 69 36
76 63 157 56 167 -2 4 -7 51 -11 105 l-6 96 43 19 c24 11 64 25 89 31 40 10
52 20 104 91 32 44 57 81 55 83 -2 2 -27 18 -56 35 -37 23 -55 41 -63 65 -25
76 -31 124 -19 147 12 24 79 48 167 60 42 6 88 12 102 14 69 10 109 15 155 20
28 2 88 9 135 15 47 5 112 12 145 15 33 3 83 7 110 10 74 7 155 15 200 20 93
9 221 20 233 19 6 -1 12 1 12 4 0 6 -2559 2563 -2563 2561 -1 0 -788 -788
-1750 -1750z m2598 -990 c69 -63 90 -107 86 -170 -2 -26 -47 -65 -91 -78 -60
-18 -265 -126 -339 -179 -63 -44 -251 -227 -251 -243 0 -4 -6 -14 -13 -21 -14
-14 -112 -157 -136 -198 -70 -121 -114 -250 -101 -300 6 -23 11 -25 56 -25 49
1 136 38 299 128 33 18 94 52 135 74 41 23 104 58 140 78 36 21 83 40 105 42
35 4 44 1 69 -26 17 -17 40 -31 52 -31 12 0 27 -6 33 -14 13 -16 -12 -38 -139
-123 -79 -52 -321 -195 -361 -213 -13 -6 -58 -28 -99 -50 -236 -125 -298 -126
-413 -8 -57 60 -80 112 -85 198 -6 100 10 170 62 271 201 393 468 687 802 883
101 59 129 60 189 5z m-948 9 c11 -13 42 -63 67 -111 l47 -88 -35 -57 c-41
-68 -196 -373 -248 -487 -117 -258 -162 -382 -327 -890 -63 -195 -132 -355
-154 -355 -7 0 -27 9 -45 20 -61 38 -83 139 -51 237 5 17 12 43 15 58 2 14 23
95 45 178 22 84 41 159 43 168 17 70 134 430 179 549 80 215 257 613 310 701
22 36 46 59 77 75 54 29 52 29 77 2z"/>
<path d="M2189 3749 c-65 -7 -81 -14 -162 -67 -48 -32 -77 -92 -237 -487 -67
-165 -128 -313 -135 -330 -7 -16 -34 -84 -61 -150 -26 -66 -53 -134 -61 -152
-13 -31 -8 -29 150 66 143 86 307 199 374 257 11 11 52 45 90 76 63 52 284
274 343 343 152 179 190 244 186 315 -4 61 -20 95 -53 117 -23 15 -51 18 -198
19 -93 0 -200 -2 -236 -7z"/>
</g>
</svg>
